<?xml version="1.0" encoding="UTF-8" standalone="no"?>
<svg
   version="1.1"
   id="Layer_1"
   x="0px"
   y="0px"
   width="100%"
   viewBox="0 0 496 496"
   enable-background="new 0 0 496 496"
   xml:space="preserve"
   sodipodi:docname="splashscreen_logo.svg"
   inkscape:version="1.4.2 (f4327f4, 2025-05-13)"
   xmlns:inkscape="http://www.inkscape.org/namespaces/inkscape"
   xmlns:sodipodi="http://sodipodi.sourceforge.net/DTD/sodipodi-0.dtd"
   xmlns="http://www.w3.org/2000/svg"
   xmlns:svg="http://www.w3.org/2000/svg"><defs
   id="defs10" /><sodipodi:namedview
   id="namedview10"
   pagecolor="#ffffff"
   bordercolor="#000000"
   borderopacity="0.25"
   inkscape:showpageshadow="2"
   inkscape:pageopacity="0.0"
   inkscape:pagecheckerboard="0"
   inkscape:deskcolor="#d1d1d1"
   inkscape:zoom="1.5584677"
   inkscape:cx="247.67917"
   inkscape:cy="248"
   inkscape:window-width="1920"
   inkscape:window-height="991"
   inkscape:window-x="-9"
   inkscape:window-y="-9"
   inkscape:window-maximized="1"
   inkscape:current-layer="Layer_1" />
<g
   id="slogan"
   transform="matrix(1.2992705,0,0,1.3594858,-78.850781,-201.99429)">
<path
   fill="#6c5ce7"
   opacity="1"
   stroke="none"
   d="m 143.59714,310.62939 c 12.18069,-12.88742 33.39566,-11.67306 44.16275,1.23673 8.05787,9.66141 10.51024,30.38611 -3.29882,41.45996 -3.03332,2.43253 -10.28086,1.10529 -13.64787,-2.56046 0.035,-0.95864 0.64028,-1.51101 1.43399,-1.83996 7.82805,-3.24423 10.6162,-9.51804 10.68862,-17.5195 0.10813,-11.95023 -7.41542,-18.92062 -19.76339,-18.21909 -9.80996,0.55734 -16.98472,10.00931 -15.59268,20.57135 1.02017,7.74051 4.64926,13.42551 12.4899,15.79743 0.92842,0.28082 2.26675,0.55282 2.60036,1.23016 1.84033,3.73673 5.01668,6.00711 8.66742,8.00168 -7.75281,4.28644 -21.49672,-0.0591 -28.97156,-8.85977 -9.16603,-10.79184 -8.75758,-27.12464 1.23128,-39.29853 z"
   id="path1" />
<path
   fill="#6c5ce7"
   opacity="1"
   stroke="none"
   d="m 366.77441,348.99439 c -3.44711,1.46786 -6.63351,2.3099 -10.0224,2.31884 -7.77987,0.0205 -14.57699,-1.77197 -18.12649,-9.65558 -3.62189,-8.04416 -2.19171,-18.71844 3.24338,-24.38586 5.09979,-5.31781 14.78668,-7.03738 22.35604,-4.12427 2.73954,1.05435 3.42469,2.52494 2.48746,5.37702 -0.932,2.83621 -2.21914,3.50729 -5.12137,2.75613 -9.94006,-2.57272 -15.52472,1.48047 -15.24542,10.78549 0.25519,8.5004 5.71137,12.26377 14.85285,10.24478 5.39099,-1.1907 7.18975,0.77848 5.57595,6.68345 z"
   id="path2" />
<path
   fill="#6c5ce7"
   opacity="1"
   stroke="none"
   d="m 208.88808,338.83606 c 0.59243,2.99313 1.88655,4.92828 4.78688,4.31018 2.72111,-0.57986 1.96635,-3.11429 2.01146,-4.99451 0.0958,-3.99237 0.1963,-7.99566 0.006,-11.98062 -0.17188,-3.59042 1.48651,-4.5729 4.79153,-4.54693 3.05098,0.0239 4.68515,0.87271 4.63319,4.2185 -0.10336,6.65552 -0.033,13.31384 -0.018,19.97098 0.006,2.77768 -1.211,4.35007 -4.10793,4.56879 -1.4832,0.11196 -2.93576,0.58425 -4.41792,0.76297 -11.69118,1.40969 -16.86574,-3.16925 -16.89996,-14.92029 -0.007,-2.49655 -0.005,-4.99314 2e-4,-7.48972 0.0162,-7.5683 0.29777,-7.79687 9.09849,-6.36242 0,5.22897 0,10.65182 0.11649,16.46307 z"
   id="path3" />
<path
   fill="#6c5ce7"
   opacity="1"
   stroke="none"
   d="m 306.30829,336.99466 c -0.002,3.15912 -0.15997,5.83267 0.0344,8.48035 0.26633,3.62783 -1.10211,4.98886 -4.84259,4.97586 -3.77719,-0.0132 -4.9313,-1.49594 -4.81671,-5.05912 0.18707,-5.8171 -0.22733,-11.66183 0.13254,-17.46261 0.30844,-4.97196 -0.93189,-7.63535 -6.49613,-6.94052 -2.50787,0.31314 -4.55578,-0.44254 -4.64315,-3.72678 -0.081,-3.04446 0.75091,-4.66986 4.15628,-4.61295 7.81738,0.13065 15.63934,0.10935 23.45764,0.009 3.04181,-0.0392 4.074,1.28818 4.07327,4.20621 -6.4e-4,2.67129 -0.93451,3.85754 -3.68048,4.15246 -7.39258,0.79392 -7.3822,0.89283 -7.37976,8.49363 7.3e-4,2.32925 0.003,4.65853 0.005,7.48489 z"
   id="path4" />
<path
   fill="#6c5ce7"
   opacity="1"
   stroke="none"
   d="m 260.75186,342.70819 c 2.05835,0.0251 3.72452,0.0374 5.39032,0.0696 2.4068,0.0465 3.09439,1.53385 3.05863,3.64804 -0.0332,1.96228 -0.2905,3.81424 -2.82682,3.83213 -6.33032,0.0446 -12.69441,0.40231 -18.98028,-0.12967 -4.2401,-0.35889 -2.94651,-3.91944 -1.71239,-6.10572 1.95355,-3.46075 4.55592,-6.55188 6.82896,-9.83731 0.9039,-1.30652 2.44892,-2.2847 2.36683,-4.21515 -1.69301,-1.16812 -3.58216,-0.65667 -5.33886,-0.64715 -2.74215,0.0149 -3.86114,-1.11057 -3.89097,-3.8779 -0.0307,-2.85181 1.22638,-3.82019 3.91386,-3.77063 4.66406,0.086 9.33254,-0.059 13.99614,0.038 1.71301,0.0356 3.94611,-0.78036 4.88916,1.40882 1.01233,2.34994 0.22598,4.58096 -1.38382,6.48404 -3.31842,3.92291 -6.66513,7.82193 -9.83548,11.53772 0.73801,2.09243 2.12088,1.31317 3.52472,1.56512 z"
   id="path5" />
<path
   fill="#6c5ce7"
   opacity="1"
   stroke="none"
   d="m 160.52774,342.78995 c -6.2292,-4.97754 -7.50233,-13.77573 -3.06439,-19.74747 2.51565,-3.3851 5.9221,-4.6698 10.06669,-3.54077 6.41488,1.74747 9.4785,8.80624 7.28927,16.69592 -1.82287,6.56943 -6.66617,8.92432 -14.29157,6.59232 z"
   id="path6" />
<path
   fill="#6c5ce7"
   opacity="1"
   stroke="none"
   d="m 321.68896,346.82227 c -0.0213,-10.1038 0.0521,-19.7251 -0.0706,-29.34388 -0.0409,-3.20599 0.73236,-4.87637 4.39963,-4.87381 3.57049,0.002 5.13702,1.09888 5.07501,4.83503 -0.15961,9.61773 -0.0641,19.23947 -0.11551,28.85937 -0.0113,2.12109 -0.44556,4.19559 -3.22373,3.97327 -2.33523,-0.18683 -5.71725,1.42105 -6.06485,-3.44998 z"
   id="path7" />
<path
   fill="#6c5ce7"
   opacity="1"
   stroke="none"
   d="m 231.02368,347.64758 c -0.0534,-7.42611 0.0504,-14.38992 -0.0801,-21.34933 -0.0631,-3.36405 1.15309,-4.75617 4.63057,-4.71536 3.27192,0.0384 4.86735,0.95178 4.75937,4.53887 -0.19443,6.4592 -0.0107,12.92902 -0.0851,19.39322 -0.0196,1.7067 0.60306,4.20337 -1.84761,4.5127 -2.51215,0.31711 -5.71077,1.78741 -7.37711,-2.3801 z"
   id="path8" />
<path
   fill="#6c5ce7"
   opacity="1"
   stroke="none"
   d="m 273.63522,314.57187 c -0.40957,-4.29593 0.85962,-6.23288 5.19971,-5.92456 4.67514,0.33209 3.35263,3.60306 3.43057,6.1413 0.0839,2.73339 -1.42956,5.02236 -2.5972,7.37475 -1.34259,2.70474 -3.54675,2.54157 -5.90597,1.6738 -2.53119,-0.93097 -1.65622,-2.76364 -1.1789,-4.51505 0.38889,-1.42703 0.69199,-2.87747 1.05179,-4.75024 z"
   id="path9" />
<path
   fill="#6c5ce7"
   opacity="1"
   stroke="none"
   d="m 231.59616,310.86493 c 2.52989,-2.4343 4.98296,-2.75266 7.41487,-0.74707 1.64606,1.35751 2.30141,3.19958 1.60851,5.36197 -0.76285,2.38061 -2.55132,3.45947 -4.88065,3.55441 -3.89133,0.15866 -5.44542,-2.68692 -4.14273,-8.16931 z"
   id="path10" />
</g>


</svg>
