<?xml version="1.0" encoding="UTF-8" standalone="no"?>
<svg
   version="1.1"
   id="Layer_1"
   x="0px"
   y="0px"
   width="1024"
   height="1024"
   viewBox="0 0 496 496"
   enable-background="new 0 0 496 496"
   xml:space="preserve"
   sodipodi:docname="logo.svg"
   inkscape:version="1.4.2 (f4327f4, 2025-05-13)"
   xmlns:inkscape="http://www.inkscape.org/namespaces/inkscape"
   xmlns:sodipodi="http://sodipodi.sourceforge.net/DTD/sodipodi-0.dtd"
   xmlns="http://www.w3.org/2000/svg"
   xmlns:svg="http://www.w3.org/2000/svg"><defs
   id="defs4" /><sodipodi:namedview
   id="namedview4"
   pagecolor="#ffffff"
   bordercolor="#000000"
   borderopacity="0.25"
   inkscape:showpageshadow="2"
   inkscape:pageopacity="0.0"
   inkscape:pagecheckerboard="0"
   inkscape:deskcolor="#d1d1d1"
   inkscape:zoom="0.75488281"
   inkscape:cx="511.33765"
   inkscape:cy="512"
   inkscape:window-width="1920"
   inkscape:window-height="991"
   inkscape:window-x="-9"
   inkscape:window-y="-9"
   inkscape:window-maximized="1"
   inkscape:current-layer="Layer_1" />





<g
   id="g4"
   transform="matrix(1.2195206,0,0,1.2635701,-60.047123,-5.385242)"><path
     fill="#6c5ce7"
     opacity="1"
     stroke="none"
     d="m 270.62457,143.96579 c 8.70035,0.21089 13.83148,8.33363 10.16324,16.56744 6.4057,0.22054 7.6543,4.22573 7.78262,9.73261 0.0687,2.94539 4.30011,4.40886 4.24277,8.88046 6.45041,-5.35533 9.3675,-0.26216 13.02503,3.05618 3.28695,2.98215 2.69159,6.06911 0.17444,9.89713 7.66717,0.74556 6.1033,6.17667 6.46859,10.87446 0.33313,4.28394 -1.57553,6.56374 -6.3258,7.69704 5.09594,6.30509 0.0841,9.46857 -3.49527,13.12883 -2.99646,3.06416 -6.13477,2.73924 -8.91712,-0.016 -4.18265,6.21488 -8.36725,11.47957 -15.47128,14.4636 6.38861,6.89064 -0.0106,10.48097 -3.89722,14.6054 -2.96405,3.1455 -3.65719,2.97005 -10.58145,-0.0682 -4.25311,7.40367 -4.25354,7.51711 -13.8842,7.47979 -4.68044,-0.0182 -8.77606,3.23394 -13.60875,2.1094 -1.27699,-0.29712 -3.05247,0.30969 -3.90596,-0.36954 -5.88077,-4.67977 -13.66087,-5.05444 -19.70003,-8.31416 -8.23683,-4.44595 -12.64416,-13.81992 -16.70083,-22.33313 -1.89278,-3.97212 1.87169,-8.51877 1.59991,-12.46425 -0.25185,-3.65617 -4.68237,-6.64104 -4.8911,-11.09013 -0.23062,-4.91591 1.01758,-9.44774 4.77347,-12.60854 2.4482,-2.06029 2.37283,-3.66888 1.41718,-6.35721 -2.80255,-7.8836 -0.87752,-14.69209 5.4683,-20.20993 0.74739,-0.64987 1.79694,-1.24627 2.08663,-2.08224 2.41006,-6.95476 6.94237,-11.58806 14.10994,-13.59435 1.40465,-0.39315 1.76407,-1.76138 2.25685,-3.05891 3.65236,-9.6172 10.28873,-12.97408 20.10388,-9.90559 2.48206,0.77595 4.21785,1.08044 6.81876,-0.24659 3.89575,-1.98767 8.45103,-1.31053 12.70121,-0.38218 3.35471,0.73278 2.32288,4.37709 3.58176,6.33401 2.00919,0.48818 2.84946,-1.23335 4.60443,-1.72537 m -57.27716,17.72839 c -0.67651,1.26352 -2.02026,2.25611 -1.58301,4.29276 4.77648,0.46176 8.76523,2.65312 11.68053,6.604 0.85379,1.15709 2.25043,2.50873 0.6078,3.88204 -1.42601,1.1922 -2.37255,-0.29441 -3.29972,-1.19422 -0.4778,-0.4637 -0.8953,-0.99075 -1.38308,-1.44272 -6.34196,-5.87606 -13.47158,-4.22212 -16.73306,3.77866 -1.79417,4.40137 -0.90698,8.42462 1.20296,12.40179 0.75628,1.42553 2.19412,2.57134 1.90251,4.72432 -3.37924,2.03 -7.2388,3.7827 -8.4948,8.31566 -1.19813,4.32424 0.42372,10.55196 3.95269,11.84098 4.35418,1.5905 6.39733,-2.25339 8.88177,-4.78786 1.53079,-1.5616 1.491,-4.56525 4.55269,-4.94026 1.68848,1.68132 0.88513,3.3325 0.0104,4.96364 -1.95416,3.64424 -4.96165,6.13207 -8.50654,8.19897 -8.56966,4.99666 -9.17412,13.3195 -1.40595,19.36247 1.92891,1.50055 3.21198,3.0258 3.82916,5.50936 1.13216,4.55569 4.18363,7.5561 8.93404,8.35662 2.84602,0.4796 5.28706,0.30283 5.32017,-3.78405 0.0274,-3.38312 1.56476,-6.45917 3.58083,-9.17765 0.92345,-1.24519 1.89446,-3.35292 3.85843,-1.92593 1.75229,1.27316 0.0297,2.6293 -0.67162,3.84695 -1.8256,3.16962 -3.95486,6.24407 -2.88348,10.2361 1.45529,5.4225 6.24522,8.56832 12.1987,7.98806 4.6454,-0.45279 8.25442,-4.81208 8.69247,-10.65595 0.10794,-1.44015 0.50803,-3.12918 -0.95472,-4.16531 -1.49785,-1.06098 -2.8459,-0.0499 -4.16355,0.64222 -1.23942,0.65102 -2.27713,2.17115 -4.23713,0.73485 0.0671,-3.68921 2.95605,-4.56372 5.76457,-5.38745 1.56488,-0.45898 3.6261,-0.26733 3.64693,-2.57896 0.076,-8.44275 0.0301,-16.88658 0.0301,-25.19486 -10.61064,-1.81846 -13.06795,-3.51976 -13.13884,-8.80943 2.56908,-0.95201 3.41769,1.46428 4.83789,2.59122 1.98367,1.57408 4.15285,2.34886 6.50581,1.49591 2.49943,-0.90601 1.74624,-3.3286 1.77251,-5.2173 0.0812,-5.83149 0.0329,-11.66475 0.034,-17.49733 8.1e-4,-4.59041 1.7e-4,-9.18082 1.7e-4,-13.71323 -11.48882,-0.39326 -16.37487,-3.4639 -16.12882,-9.79315 3.21494,-0.69269 3.95339,2.53044 5.83199,3.82646 2.70614,1.86694 5.58154,2.55063 8.49763,1.3573 2.81273,-1.15105 1.65178,-4.04031 1.76018,-6.23309 0.13133,-2.65683 0.2245,-5.36486 -0.13661,-7.98586 -0.6373,-4.62584 -2.88462,-8.1366 -7.81772,-9.24457 -4.26689,-0.95831 -9.51496,-0.0835 -10.58379,3.42267 -2.4042,7.88692 -8.20752,11.04648 -14.64778,14.10388 -0.28001,0.13292 -0.46216,0.47205 -1.1167,1.25229 m 53.0492,21.33634 c -0.99936,1.25483 -2.78589,1.94447 -2.83603,3.84942 3.25723,5.48004 2.73477,7.39725 -2.96167,9.54509 -2.34827,0.88539 -2.29541,2.61374 -2.23145,4.42661 0.0658,1.86526 -0.72497,4.18352 2.13364,4.89255 4.9313,1.22313 6.15314,4.25837 3.72815,8.54097 -1.29276,2.28302 -0.10016,3.51368 1.34466,4.62899 1.41581,1.0929 2.31293,3.20432 5.02927,1.909 4.80811,-2.29282 6.95178,-1.45715 8.55298,3.41164 0.92486,2.81231 2.81772,2.37046 4.72183,2.40204 1.95798,0.0325 3.88477,0.28089 4.79205,-2.40087 1.63327,-4.82756 3.54816,-5.6965 7.92237,-3.35557 2.91531,1.56016 3.90908,-0.60942 5.39023,-1.94899 1.49221,-1.34961 2.85366,-2.62006 1.12899,-5.04058 -2.55285,-3.58291 -1.05884,-6.5057 2.75452,-7.70739 3.14554,-0.99125 2.97943,-3.0685 2.98401,-5.43285 0.005,-2.37627 -0.44351,-4.03104 -3.37088,-4.55153 -3.26081,-0.5798 -4.61261,-3.99861 -3.21524,-6.10461 3.93341,-5.92809 -1.53308,-6.76686 -3.8244,-9.4636 -5.6092,3.77697 -7.43833,3.34734 -9.85929,-2.4313 -1.00714,-2.40402 -2.85656,-1.91231 -4.5744,-1.9352 -1.91086,-0.0255 -3.7944,-0.37893 -4.80112,2.33315 -1.7872,4.81468 -3.867,5.48652 -8.57159,2.93432 -1.96237,-1.06454 -2.69797,0.0615 -4.23663,1.49871 m -15.57372,70.49167 c -0.20724,2.63754 1.68558,2.38584 3.34137,2.39611 2.07491,0.0129 3.16332,-0.90506 3.86635,-3.03321 1.40817,-4.26281 5.96152,-5.96602 9.70038,-3.46013 3.03049,2.03109 4.20282,-0.16855 5.73932,-1.72756 1.63501,-1.65898 4.02932,-2.86401 1.76721,-6.12095 -2.84741,-4.0997 -1.11515,-7.54465 3.74722,-8.735 1.02158,-0.2501 2.46417,0.19847 2.84995,-1.88974 -4.48621,0.39833 -6.94754,-2.02773 -7.81168,-6.25036 -3.03088,1.05404 -4.64667,2.43085 -5.44589,5.49433 -1.69608,6.50131 -5.60947,11.20291 -12.76711,12.35618 -2.89538,0.46653 -4.14836,2.49579 -4.40687,5.25623 -0.15436,1.64819 -0.27472,3.29956 -0.58025,5.7141 m 28.04744,-87.65433 c -3.10525,-3.70349 -4.67657,-7.56099 0.0412,-12.02739 -5.41141,-0.6189 -8.82523,-3.86099 -13.48816,-3.25791 -1.71314,0.22155 -3.70807,-1.13146 -4.08292,-3.1296 -1.09951,-5.86106 -4.85916,-4.46842 -9.36094,-3.53269 1.80468,1.90441 1.30304,3.53432 0.55885,5.27944 -0.76495,1.79388 -1.65222,3.67595 -0.75588,5.75061 1.53498,1.03611 3.24546,0.44297 4.85555,0.61528 2.94431,0.31506 6.16296,-2.30297 8.79523,1.6786 1.89999,2.8739 4.38012,5.31688 5.75604,8.63173 0.93774,2.25926 -1.44928,6.2659 2.45001,6.69635 3.73551,0.41237 3.61173,-4.01566 5.23105,-6.70442 m -11.31381,4.60458 c -0.73142,-5.75824 -4.01563,-9.43828 -9.51581,-10.8558 -3.32196,-0.85616 -6.05939,0.0625 -6.07928,4.28679 -0.0211,4.48426 -0.0133,8.96931 0.0468,13.45314 0.0446,3.32348 2.12105,4.3531 5.00179,3.8593 5.67667,-0.97306 9.07648,-4.4832 10.54648,-10.74343 m -7.03406,65.61104 c 6.30978,-6.93469 5.4628,-13.90004 -2.26849,-18.65601 -4.02791,-2.47776 -6.75927,-1.14827 -6.83963,3.42559 -0.0844,4.80246 0.0339,9.60843 -0.0453,14.41107 -0.0491,2.97375 1.49852,3.92244 4.0842,3.27252 1.5654,-0.39349 3.00009,-1.30705 5.06924,-2.45317 m -7.17584,-46.42587 c 0.15307,1.35689 -0.71659,2.89618 0.71731,4.14149 2.69489,-0.45801 3.52878,-2.09913 3.15021,-4.60353 -0.18558,-1.22783 0.25373,-2.89726 -1.73599,-2.95378 -1.92613,-0.0547 -1.7133,1.63028 -2.13153,3.41582 z"
     id="path1" /><path
     fill="#6c5ce7"
     opacity="1"
     stroke="none"
     d="m 239.84477,185.20114 c 1.79685,1.40759 1.20601,2.61044 -0.11934,3.30847 -6.38403,3.36251 -11.6222,7.61957 -11.96745,16.06986 -2.94682,-2.72644 -2.94682,-2.72644 -1.05595,-11.91541 -3.86507,-1.34579 -7.94507,-2.5011 -10.58585,-6.02749 -0.69803,-0.93212 -1.35744,-2.06192 -0.2166,-3.11809 0.9294,-0.86041 1.98818,-0.40396 2.66348,0.32925 6.59368,7.15903 13.72252,4.70288 21.28171,1.35341 z"
     id="path2" /><path
     fill="#6c5ce7"
     opacity="1"
     stroke="none"
     d="m 232.39203,222.49661 c -2.29602,2.04698 -4.94669,2.69454 -7.17665,3.76471 -1.23815,3.55255 2.98199,7.11145 -0.29811,10.34529 -0.568,-0.13237 -1.12421,-0.14453 -1.16002,-0.28724 -1.56839,-6.25177 -4.73339,-11.12703 -11.08069,-13.49958 -1.02161,-0.38186 -1.9937,-1.48034 -1.25197,-2.8314 0.7361,-1.34078 1.92717,-1.03092 3.02702,-0.44388 5.96151,3.18176 11.67304,3.64555 16.97713,-1.39282 0.91481,-0.86899 2.30512,-1.26865 3.03838,-0.026 1.1459,1.94201 -0.79508,2.91064 -2.07509,4.37089 z"
     id="path3" /><path
     fill="#6c5ce7"
     opacity="1"
     stroke="none"
     d="m 270.59097,204.18842 c -1.10599,-9.10743 3.02747,-14.97707 11.14725,-16.30887 7.20676,-1.18207 13.59442,3.49299 15.22965,11.14642 1.41189,6.60794 -2.98969,13.60652 -9.62912,15.31049 -8.15821,2.0937 -14.17875,-1.42505 -16.74778,-10.14804 m 17.33304,-11.77462 c -4.52615,-2.07634 -8.53512,-1.10646 -11.64569,2.56 -2.99646,3.53198 -3.04211,7.69643 -0.82721,11.62967 2.27258,4.03574 6.20203,4.72371 10.39285,4.01544 4.04761,-0.6841 6.33911,-3.42122 7.3385,-7.2399 1.22644,-4.68617 -1.043,-7.95741 -5.25845,-10.96521 z"
     id="path4" /></g>
</svg>
